<?xml version="1.0" encoding="iso-8859-1"?>
<!-- Generator: Adobe Illustrator 18.1.1, SVG Export Plug-In . SVG Version: 6.00 Build 0)  -->
<svg version="1.1" id="Capa_1" xmlns="http://www.w3.org/2000/svg" xmlns:xlink="http://www.w3.org/1999/xlink" x="0px" y="0px"
	 viewBox="0 0 312.746 312.746" style="enable-background:new 0 0 312.746 312.746;" xml:space="preserve">
<g>
	<g>
		<g>
			<path style="fill:#010002;" d="M0.008,0v312.746h312.73V0H0.008z M10.244,302.499V10.236h292.268v292.263H10.244z"/>
		</g>
		<g>
			<path style="fill:#010002;" d="M62.073,123.695c-18.025,0-32.689,14.647-32.689,32.678c0,18.02,14.664,32.678,32.689,32.678
				s32.689-14.653,32.689-32.678C94.762,138.343,80.104,123.695,62.073,123.695z"/>
		</g>
		<g>
			<path style="fill:#010002;" d="M161.69,123.695c-18.014,0-32.678,14.647-32.678,32.678c0,18.02,14.664,32.678,32.678,32.678
				c18.03,0,32.694-14.653,32.694-32.678C194.384,138.343,179.72,123.695,161.69,123.695z"/>
		</g>
		<g>
			<path style="fill:#010002;" d="M261.399,123.695c-18.02,0-32.689,14.647-32.689,32.678c0,18.02,14.669,32.678,32.689,32.678
				s32.689-14.653,32.689-32.678C294.082,138.343,279.418,123.695,261.399,123.695z"/>
		</g>
	</g>
</g>
<g>
</g>
<g>
</g>
<g>
</g>
<g>
</g>
<g>
</g>
<g>
</g>
<g>
</g>
<g>
</g>
<g>
</g>
<g>
</g>
<g>
</g>
<g>
</g>
<g>
</g>
<g>
</g>
<g>
</g>
</svg>
